<svg id="my-svg" width="100%" xmlns="http://www.w3.org/2000/svg" xmlns:xlink="http://www.w3.org/1999/xlink" class="classDiagram" style="max-width: 1255.22px; background-color: white;" viewBox="0 0 1255.224609375 590" role="graphics-document document" aria-roledescription="class"><style>#my-svg{font-family:"trebuchet ms",verdana,arial,sans-serif;font-size:16px;fill:#000000;}@keyframes edge-animation-frame{from{stroke-dashoffset:0;}}@keyframes dash{to{stroke-dashoffset:0;}}#my-svg .edge-animation-slow{stroke-dasharray:9,5!important;stroke-dashoffset:900;animation:dash 50s linear infinite;stroke-linecap:round;}#my-svg .edge-animation-fast{stroke-dasharray:9,5!important;stroke-dashoffset:900;animation:dash 20s linear infinite;stroke-linecap:round;}#my-svg .error-icon{fill:#552222;}#my-svg .error-text{fill:#552222;stroke:#552222;}#my-svg .edge-thickness-normal{stroke-width:1px;}#my-svg .edge-thickness-thick{stroke-width:3.5px;}#my-svg .edge-pattern-solid{stroke-dasharray:0;}#my-svg .edge-thickness-invisible{stroke-width:0;fill:none;}#my-svg .edge-pattern-dashed{stroke-dasharray:3;}#my-svg .edge-pattern-dotted{stroke-dasharray:2;}#my-svg .marker{fill:#666;stroke:#666;}#my-svg .marker.cross{stroke:#666;}#my-svg svg{font-family:"trebuchet ms",verdana,arial,sans-serif;font-size:16px;}#my-svg p{margin:0;}#my-svg g.classGroup text{fill:#999;stroke:none;font-family:"trebuchet ms",verdana,arial,sans-serif;font-size:10px;}#my-svg g.classGroup text .title{font-weight:bolder;}#my-svg .cluster-label text{fill:#333;}#my-svg .cluster-label span{color:#333;}#my-svg .cluster-label span p{background-color:transparent;}#my-svg .cluster rect{fill:hsl(0, 0%, 98.9215686275%);stroke:#707070;stroke-width:1px;}#my-svg .cluster text{fill:#333;}#my-svg .cluster span{color:#333;}#my-svg .nodeLabel,#my-svg .edgeLabel{color:#111111;}#my-svg .noteLabel .nodeLabel,#my-svg .noteLabel .edgeLabel{color:#fff;}#my-svg .edgeLabel .label rect{fill:#eee;}#my-svg .label text{fill:#111111;}#my-svg .labelBkg{background:#eee;}#my-svg .edgeLabel .label span{background:#eee;}#my-svg .classTitle{font-weight:bolder;}#my-svg .node rect,#my-svg .node circle,#my-svg .node ellipse,#my-svg .node polygon,#my-svg .node path{fill:#eee;stroke:#999;stroke-width:1;}#my-svg .divider{stroke:#999;stroke-width:1;}#my-svg g.clickable{cursor:pointer;}#my-svg g.classGroup rect{fill:#eee;stroke:#999;}#my-svg g.classGroup line{stroke:#999;stroke-width:1;}#my-svg .classLabel .box{stroke:none;stroke-width:0;fill:#eee;opacity:0.5;}#my-svg .classLabel .label{fill:#999;font-size:10px;}#my-svg .relation{stroke:#666;stroke-width:1;fill:none;}#my-svg .dashed-line{stroke-dasharray:3;}#my-svg .dotted-line{stroke-dasharray:1 2;}#my-svg [id$="-compositionStart"],#my-svg .composition{fill:#666!important;stroke:#666!important;stroke-width:1;}#my-svg [id$="-compositionEnd"],#my-svg .composition{fill:#666!important;stroke:#666!important;stroke-width:1;}#my-svg [id$="-dependencyStart"],#my-svg .dependency{fill:#666!important;stroke:#666!important;stroke-width:1;}#my-svg [id$="-dependencyEnd"],#my-svg .dependency{fill:#666!important;stroke:#666!important;stroke-width:1;}#my-svg [id$="-extensionStart"],#my-svg .extension{fill:transparent!important;stroke:#666!important;stroke-width:1;}#my-svg [id$="-extensionEnd"],#my-svg .extension{fill:transparent!important;stroke:#666!important;stroke-width:1;}#my-svg [id$="-aggregationStart"],#my-svg .aggregation{fill:transparent!important;stroke:#666!important;stroke-width:1;}#my-svg [id$="-aggregationEnd"],#my-svg .aggregation{fill:transparent!important;stroke:#666!important;stroke-width:1;}#my-svg [id$="-lollipopStart"],#my-svg .lollipop{fill:#eee!important;stroke:#666!important;stroke-width:1;}#my-svg [id$="-lollipopEnd"],#my-svg .lollipop{fill:#eee!important;stroke:#666!important;stroke-width:1;}#my-svg .edgeTerminals{font-size:11px;line-height:initial;}#my-svg .classTitleText{text-anchor:middle;font-size:18px;fill:#000000;}#my-svg .edgeLabel[data-look="neo"]{background-color:white;text-align:center;}#my-svg .edgeLabel[data-look="neo"] p{background-color:white;}#my-svg .edgeLabel[data-look="neo"] rect{opacity:0.5;background-color:white;fill:white;}#my-svg .label-icon{display:inline-block;height:1em;overflow:visible;vertical-align:-0.125em;}#my-svg .node .label-icon path{fill:currentColor;stroke:revert;stroke-width:revert;}#my-svg .node .neo-node{stroke:#999;}#my-svg [data-look="neo"].node rect,#my-svg [data-look="neo"].cluster rect,#my-svg [data-look="neo"].node polygon{stroke:url(#my-svg-gradient);filter:drop-shadow( 1px 2px 2px rgba(185,185,185,1));}#my-svg [data-look="neo"].swimlane.cluster rect{filter:none;}#my-svg [data-look="neo"].node path{stroke:url(#my-svg-gradient);stroke-width:1px;}#my-svg [data-look="neo"].node .outer-path{filter:drop-shadow( 1px 2px 2px rgba(185,185,185,1));}#my-svg [data-look="neo"].node .neo-line path{stroke:#999;filter:none;}#my-svg [data-look="neo"].node circle{stroke:url(#my-svg-gradient);filter:drop-shadow( 1px 2px 2px rgba(185,185,185,1));}#my-svg [data-look="neo"].node circle .state-start{fill:#000000;}#my-svg [data-look="neo"].icon-shape .icon{fill:url(#my-svg-gradient);filter:drop-shadow( 1px 2px 2px rgba(185,185,185,1));}#my-svg [data-look="neo"].icon-shape .icon-neo path{stroke:url(#my-svg-gradient);filter:drop-shadow( 1px 2px 2px rgba(185,185,185,1));}#my-svg :root{--mermaid-font-family:"trebuchet ms",verdana,arial,sans-serif;}</style><g><defs><marker id="my-svg_class-aggregationStart" class="marker aggregation class" refX="18" refY="7" markerWidth="190" markerHeight="240" orient="auto"><path d="M 18,7 L9,13 L1,7 L9,1 Z"/></marker></defs><defs><marker id="my-svg_class-aggregationEnd" class="marker aggregation class" refX="1" refY="7" markerWidth="20" markerHeight="28" orient="auto"><path d="M 18,7 L9,13 L1,7 L9,1 Z"/></marker></defs><defs><marker id="my-svg_class-aggregationStart-margin" class="marker aggregation class" refX="15" refY="7" markerWidth="190" markerHeight="240" orient="auto" markerUnits="userSpaceOnUse"><path d="M 18,7 L9,13 L1,7 L9,1 Z" style="stroke-width: 2;"/></marker></defs><defs><marker id="my-svg_class-aggregationEnd-margin" class="marker aggregation class" refX="1" refY="7" markerWidth="20" markerHeight="28" orient="auto" markerUnits="userSpaceOnUse"><path d="M 18,7 L9,13 L1,7 L9,1 Z" style="stroke-width: 2;"/></marker></defs><defs><marker id="my-svg_class-extensionStart" class="marker extension class" refX="18" refY="7" markerWidth="20" markerHeight="28" orient="auto" markerUnits="userSpaceOnUse"><path d="M 1,7 L18,13 V 1 Z"/></marker></defs><defs><marker id="my-svg_class-extensionEnd" class="marker extension class" refX="1" refY="7" markerWidth="20" markerHeight="28" orient="auto"><path d="M 1,1 V 13 L18,7 Z"/></marker></defs><marker id="my-svg_class-extensionStart-margin" class="marker extension class" refX="18" refY="7" markerWidth="20" markerHeight="28" orient="auto" markerUnits="userSpaceOnUse" viewBox="0 0 20 14"><polygon points="10,7 18,13 18,1" style="stroke-width: 2; stroke-dasharray: 0;"/></marker><defs><marker id="my-svg_class-extensionEnd-margin" class="marker extension class" refX="9" refY="7" markerWidth="20" markerHeight="28" orient="auto" markerUnits="userSpaceOnUse" viewBox="0 0 20 14"><polygon points="10,1 10,13 18,7" style="stroke-width: 2; stroke-dasharray: 0;"/></marker></defs><defs><marker id="my-svg_class-compositionStart" class="marker composition class" refX="18" refY="7" markerWidth="190" markerHeight="240" orient="auto"><path d="M 18,7 L9,13 L1,7 L9,1 Z"/></marker></defs><defs><marker id="my-svg_class-compositionEnd" class="marker composition class" refX="1" refY="7" markerWidth="20" markerHeight="28" orient="auto"><path d="M 18,7 L9,13 L1,7 L9,1 Z"/></marker></defs><defs><marker id="my-svg_class-compositionStart-margin" class="marker composition class" refX="15" refY="7" markerWidth="190" markerHeight="240" orient="auto" markerUnits="userSpaceOnUse"><path viewBox="0 0 15 15" d="M 18,7 L9,13 L1,7 L9,1 Z" style="stroke-width: 0;"/></marker></defs><defs><marker id="my-svg_class-compositionEnd-margin" class="marker composition class" refX="3.5" refY="7" markerWidth="20" markerHeight="28" orient="auto" markerUnits="userSpaceOnUse"><path d="M 18,7 L9,13 L1,7 L9,1 Z" style="stroke-width: 0;"/></marker></defs><defs><marker id="my-svg_class-dependencyStart" class="marker dependency class" refX="6" refY="7" markerWidth="190" markerHeight="240" orient="auto"><path d="M 5,7 L9,13 L1,7 L9,1 Z"/></marker></defs><defs><marker id="my-svg_class-dependencyEnd" class="marker dependency class" refX="13" refY="7" markerWidth="20" markerHeight="28" orient="auto"><path d="M 18,7 L9,13 L14,7 L9,1 Z"/></marker></defs><defs><marker id="my-svg_class-dependencyStart-margin" class="marker dependency class" refX="4" refY="7" markerWidth="190" markerHeight="240" orient="auto" markerUnits="userSpaceOnUse"><path d="M 5,7 L9,13 L1,7 L9,1 Z" style="stroke-width: 0;"/></marker></defs><defs><marker id="my-svg_class-dependencyEnd-margin" class="marker dependency class" refX="16" refY="7" markerWidth="20" markerHeight="28" orient="auto" markerUnits="userSpaceOnUse"><path d="M 18,7 L9,13 L14,7 L9,1 Z" style="stroke-width: 0;"/></marker></defs><defs><marker id="my-svg_class-lollipopStart" class="marker lollipop class" refX="13" refY="7" markerWidth="190" markerHeight="240" orient="auto"><circle fill="transparent" cx="7" cy="7" r="6"/></marker></defs><defs><marker id="my-svg_class-lollipopEnd" class="marker lollipop class" refX="1" refY="7" markerWidth="190" markerHeight="240" orient="auto"><circle fill="transparent" cx="7" cy="7" r="6"/></marker></defs><defs><marker id="my-svg_class-lollipopStart-margin" class="marker lollipop class" refX="13" refY="7" markerWidth="190" markerHeight="240" orient="auto" markerUnits="userSpaceOnUse"><circle fill="transparent" cx="7" cy="7" r="6" stroke-width="2"/></marker></defs><defs><marker id="my-svg_class-lollipopEnd-margin" class="marker lollipop class" refX="1" refY="7" markerWidth="190" markerHeight="240" orient="auto" markerUnits="userSpaceOnUse"><circle fill="transparent" cx="7" cy="7" r="6" stroke-width="2"/></marker></defs><g class="root"><g class="clusters"/><g class="edgePaths"><path d="M240.033,132.567L230.093,136.972C220.152,141.378,200.271,150.189,190.331,156.386C180.391,162.583,180.391,166.167,180.391,167.958L180.391,169.75" id="my-svg-id_DiscoveryAgentImpl_OrchestratorAgent_1" class="edge-thickness-normal edge-pattern-dashed relation" style=";;;" data-edge="true" data-et="edge" data-id="id_DiscoveryAgentImpl_OrchestratorAgent_1" data-points="W3sieCI6MjQwLjAzMzIwMzEyNSwieSI6MTMyLjU2NjUwMDQyNzg5MjcyfSx7IngiOjE4MC4zOTA2MjUsInkiOjE1OX0seyJ4IjoxODAuMzkwNjI1LCJ5IjoxODd9XQ==" data-look="classic" marker-end="url(#my-svg_class-extensionEnd)"/><path d="M517.861,132.567L527.802,136.972C537.742,141.378,557.623,150.189,567.563,157.761C577.504,165.333,577.504,171.667,577.504,174.833L577.504,178" id="my-svg-id_DiscoveryAgentImpl_DiscoveryExecutor_2" class="edge-thickness-normal edge-pattern-solid relation" style=";;;" data-edge="true" data-et="edge" data-id="id_DiscoveryAgentImpl_DiscoveryExecutor_2" data-points="W3sieCI6NTE3Ljg2MTMyODEyNSwieSI6MTMyLjU2NjUwMDQyNzg5MjcyfSx7IngiOjU3Ny41MDM5MDYyNSwieSI6MTU5fSx7IngiOjU3Ny41MDM5MDYyNSwieSI6MTg0fV0=" data-look="classic" marker-end="url(#my-svg_class-dependencyEnd)"/><path d="M567.067,358L566.568,362.167C566.068,366.333,565.068,374.667,564.568,382C564.068,389.333,564.068,395.667,564.068,398.833L564.068,402" id="my-svg-id_DiscoveryExecutor_DiscoveryMemory_3" class="edge-thickness-normal edge-pattern-solid relation" style=";;;" data-edge="true" data-et="edge" data-id="id_DiscoveryExecutor_DiscoveryMemory_3" data-points="W3sieCI6NTY3LjA2NzM2NTM3Mzg4NCwieSI6MzU4fSx7IngiOjU2NC4wNjgzNTkzNzUsInkiOjM4M30seyJ4Ijo1NjQuMDY4MzU5Mzc1LCJ5Ijo0MDh9XQ==" data-look="classic" marker-end="url(#my-svg_class-dependencyEnd)"/><path d="M752.227,355.645L761.637,360.204C771.048,364.764,789.87,373.882,810.381,384.15C830.892,394.419,853.092,405.837,864.192,411.546L875.292,417.256" id="my-svg-id_DiscoveryExecutor_ToolRegistry_4" class="edge-thickness-normal edge-pattern-solid relation" style=";;;" data-edge="true" data-et="edge" data-id="id_DiscoveryExecutor_ToolRegistry_4" data-points="W3sieCI6NzUyLjIyNjU2MjUsInkiOjM1NS42NDUzMDk1NDMxMTk3N30seyJ4Ijo4MDguNjkxNDA2MjUsInkiOjM4M30seyJ4Ijo4ODAuNjI3MzE5MzM1OTM3NSwieSI6NDIwfV0=" data-look="classic" marker-end="url(#my-svg_class-dependencyEnd)"/><path d="M1036.443,343L1036.443,349.667C1036.443,356.333,1036.443,369.667,1035.982,381.504C1035.52,393.341,1034.597,403.683,1034.135,408.853L1033.673,414.024" id="my-svg-id_ToolExecutor_ToolRegistry_5" class="edge-thickness-normal edge-pattern-solid relation" style=";;;" data-edge="true" data-et="edge" data-id="id_ToolExecutor_ToolRegistry_5" data-points="W3sieCI6MTAzNi40NDMzNTkzNzUsInkiOjM0M30seyJ4IjoxMDM2LjQ0MzM1OTM3NSwieSI6MzgzfSx7IngiOjEwMzMuMTM5Nzg3OTQ2NDI4NywieSI6NDIwfV0=" data-look="classic" marker-end="url(#my-svg_class-dependencyEnd)"/></g><g class="edgeLabels"><g class="edgeLabel"><g class="label" data-id="id_DiscoveryAgentImpl_OrchestratorAgent_1" transform="translate(0, 0)"><foreignObject width="0" height="0"><div xmlns="http://www.w3.org/1999/xhtml" class="labelBkg" style="display: table-cell; white-space: nowrap; line-height: 1.5; max-width: 200px; text-align: center;"><span class="edgeLabel"></span></div></foreignObject></g></g><g class="edgeLabel"><g class="label" data-id="id_DiscoveryAgentImpl_DiscoveryExecutor_2" transform="translate(0, 0)"><foreignObject width="0" height="0"><div xmlns="http://www.w3.org/1999/xhtml" class="labelBkg" style="display: table-cell; white-space: nowrap; line-height: 1.5; max-width: 200px; text-align: center;"><span class="edgeLabel"></span></div></foreignObject></g></g><g class="edgeLabel"><g class="label" data-id="id_DiscoveryExecutor_DiscoveryMemory_3" transform="translate(0, 0)"><foreignObject width="0" height="0"><div xmlns="http://www.w3.org/1999/xhtml" class="labelBkg" style="display: table-cell; white-space: nowrap; line-height: 1.5; max-width: 200px; text-align: center;"><span class="edgeLabel"></span></div></foreignObject></g></g><g class="edgeLabel"><g class="label" data-id="id_DiscoveryExecutor_ToolRegistry_4" transform="translate(0, 0)"><foreignObject width="0" height="0"><div xmlns="http://www.w3.org/1999/xhtml" class="labelBkg" style="display: table-cell; white-space: nowrap; line-height: 1.5; max-width: 200px; text-align: center;"><span class="edgeLabel"></span></div></foreignObject></g></g><g class="edgeLabel"><g class="label" data-id="id_ToolExecutor_ToolRegistry_5" transform="translate(0, 0)"><foreignObject width="0" height="0"><div xmlns="http://www.w3.org/1999/xhtml" class="labelBkg" style="display: table-cell; white-space: nowrap; line-height: 1.5; max-width: 200px; text-align: center;"><span class="edgeLabel"></span></div></foreignObject></g></g></g><g class="nodes"><g class="node default" id="my-svg-classId-OrchestratorAgent-0" data-look="classic" transform="translate(180.390625, 271)"><g class="basic label-container outer-path"><path d="M-172.390625 -84 L172.390625 -84 L172.390625 84 L-172.390625 84" stroke="none" stroke-width="0" fill="#eee" style=""/><path d="M-172.390625 -84 C-50.983009534355276 -84, 70.42460593128945 -84, 172.390625 -84 M-172.390625 -84 C-51.851353267889905 -84, 68.68791846422019 -84, 172.390625 -84 M172.390625 -84 C172.390625 -19.78139415837431, 172.390625 44.43721168325138, 172.390625 84 M172.390625 -84 C172.390625 -23.525995134890266, 172.390625 36.94800973021947, 172.390625 84 M172.390625 84 C60.48854714075415 84, -51.4135307184917 84, -172.390625 84 M172.390625 84 C67.53308023366922 84, -37.32446453266155 84, -172.390625 84 M-172.390625 84 C-172.390625 30.946100909454273, -172.390625 -22.107798181091454, -172.390625 -84 M-172.390625 84 C-172.390625 36.27716518852258, -172.390625 -11.445669622954838, -172.390625 -84" stroke="#999" stroke-width="1.3" fill="none" stroke-dasharray="0 0" style=""/></g><g class="annotation-group text" transform="translate(-41.171875, -60)"><g class="label" style="" transform="translate(0,-12)"><foreignObject width="82.34375" height="24"><div xmlns="http://www.w3.org/1999/xhtml" style="display: table-cell; white-space: nowrap; line-height: 1.5; max-width: 122px; text-align: center;"><span class="nodeLabel markdown-node-label" style=""><p>«interface»</p></span></div></foreignObject></g></g><g class="label-group text" transform="translate(-69.21875, -36)"><g class="label" style="font-weight: bolder" transform="translate(0,-12)"><foreignObject width="138.4375" height="24"><div xmlns="http://www.w3.org/1999/xhtml" style="display: table-cell; white-space: nowrap; line-height: 1.5; max-width: 169px; text-align: center;"><span class="nodeLabel markdown-node-label" style=""><p>OrchestratorAgent</p></span></div></foreignObject></g></g><g class="members-group text" transform="translate(-160.390625, 12)"><g class="label" style="" transform="translate(0,-12)"><foreignObject width="67.0625" height="24"><div xmlns="http://www.w3.org/1999/xhtml" style="display: table-cell; white-space: nowrap; line-height: 1.5; max-width: 116px; text-align: center;"><span class="nodeLabel markdown-node-label" style=""><p>+id string</p></span></div></foreignObject></g></g><g class="methods-group text" transform="translate(-160.390625, 60)"><g class="label" style="" transform="translate(0,-12)"><foreignObject width="251.5625" height="24"><div xmlns="http://www.w3.org/1999/xhtml" style="display: table-cell; white-space: nowrap; line-height: 1.5; max-width: 276px; text-align: center;"><span class="nodeLabel markdown-node-label" style=""><p>+execute(input, context) : Promise</p></span></div></foreignObject></g></g><g class="divider" style=""><path d="M-172.390625 -12 C-59.746367329334916 -11.999673287750797, 52.89789034133017 -11.999346575501594, 172.390625 -11.999 M-172.390625 -12 C-44.68027107031166 -11.999629590199786, 83.03008285937668 -11.999259180399575, 172.390625 -11.999" stroke="#999" stroke-width="1.3" fill="none" stroke-dasharray="0 0" style=""/></g><g class="divider" style=""><path d="M-172.390625 36 C-45.15001792476275 36.000369047351256, 82.0905891504745 36.00073809470251, 172.390625 36.001 M-172.390625 36 C-68.21202256717773 36.00030215854961, 35.96657986564455 36.00060431709922, 172.390625 36.001" stroke="#999" stroke-width="1.3" fill="none" stroke-dasharray="0 0" style=""/></g></g><g class="node default" id="my-svg-classId-DiscoveryExecutor-1" data-look="classic" transform="translate(577.50390625, 271)"><g class="basic label-container outer-path"><path d="M-174.72265625 -87 L174.72265625 -87 L174.72265625 87 L-174.72265625 87" stroke="none" stroke-width="0" fill="#eee" style=""/><path d="M-174.72265625 -87 C-100.09982105948087 -87, -25.476985868961748 -87, 174.72265625 -87 M-174.72265625 -87 C-71.27121665441953 -87, 32.180222941160935 -87, 174.72265625 -87 M174.72265625 -87 C174.72265625 -26.943192613880925, 174.72265625 33.11361477223815, 174.72265625 87 M174.72265625 -87 C174.72265625 -24.34065758599875, 174.72265625 38.3186848280025, 174.72265625 87 M174.72265625 87 C38.55974472734496 87, -97.60316679531007 87, -174.72265625 87 M174.72265625 87 C76.83894492378717 87, -21.044766402425665 87, -174.72265625 87 M-174.72265625 87 C-174.72265625 38.83479399029109, -174.72265625 -9.330412019417821, -174.72265625 -87 M-174.72265625 87 C-174.72265625 36.51597224543468, -174.72265625 -13.968055509130636, -174.72265625 -87" stroke="#999" stroke-width="1.3" fill="none" stroke-dasharray="0 0" style=""/></g><g class="annotation-group text" transform="translate(0, -63)"/><g class="label-group text" transform="translate(-69.6015625, -63)"><g class="label" style="font-weight: bolder" transform="translate(0,-12)"><foreignObject width="139.203125" height="24"><div xmlns="http://www.w3.org/1999/xhtml" style="display: table-cell; white-space: nowrap; line-height: 1.5; max-width: 174px; text-align: center;"><span class="nodeLabel markdown-node-label" style=""><p>DiscoveryExecutor</p></span></div></foreignObject></g></g><g class="members-group text" transform="translate(-162.72265625, -15)"/><g class="methods-group text" transform="translate(-162.72265625, 15)"><g class="label" style="" transform="translate(0,-12)"><foreignObject width="255.84375" height="24"><div xmlns="http://www.w3.org/1999/xhtml" style="display: table-cell; white-space: nowrap; line-height: 1.5; max-width: 290px; text-align: center;"><span class="nodeLabel markdown-node-label" style=""><p>+run(input) : DiscoveryAgentOutput</p></span></div></foreignObject></g><g class="label" style="" transform="translate(0,12)"><foreignObject width="207.359375" height="24"><div xmlns="http://www.w3.org/1999/xhtml" style="display: table-cell; white-space: nowrap; line-height: 1.5; max-width: 236px; text-align: center;"><span class="nodeLabel markdown-node-label" style=""><p>-confidenceFor(...) : number</p></span></div></foreignObject></g><g class="label" style="" transform="translate(0,36)"><foreignObject width="238.78125" height="24"><div xmlns="http://www.w3.org/1999/xhtml" style="display: table-cell; white-space: nowrap; line-height: 1.5; max-width: 270px; text-align: center;"><span class="nodeLabel markdown-node-label" style=""><p>-callTool(name, input) : unknown</p></span></div></foreignObject></g></g><g class="divider" style=""><path d="M-174.72265625 -39 C-75.18274732399507 -38.99971514882196, 24.357161602009853 -38.999430297643926, 174.72265625 -38.999 M-174.72265625 -39 C-60.89720027864733 -38.99967426818475, 52.928255692705335 -38.9993485363695, 174.72265625 -38.999" stroke="#999" stroke-width="1.3" fill="none" stroke-dasharray="0 0" style=""/></g><g class="divider" style=""><path d="M-174.72265625 -15 C-51.84426100396013 -14.999648361586633, 71.03413424207974 -14.999296723173266, 174.72265625 -14.999 M-174.72265625 -15 C-67.8433555585625 -14.999694145845234, 39.035945132875014 -14.999388291690469, 174.72265625 -14.999" stroke="#999" stroke-width="1.3" fill="none" stroke-dasharray="0 0" style=""/></g></g><g class="node default" id="my-svg-classId-DiscoveryMemory-2" data-look="classic" transform="translate(564.068359375, 495)"><g class="basic label-container outer-path"><path d="M-223.1796875 -87 L223.1796875 -87 L223.1796875 87 L-223.1796875 87" stroke="none" stroke-width="0" fill="#eee" style=""/><path d="M-223.1796875 -87 C-64.7349599716953 -87, 93.70976755660939 -87, 223.1796875 -87 M-223.1796875 -87 C-121.5767459818877 -87, -19.973804463775394 -87, 223.1796875 -87 M223.1796875 -87 C223.1796875 -33.90030960227605, 223.1796875 19.199380795447894, 223.1796875 87 M223.1796875 -87 C223.1796875 -28.067906730634704, 223.1796875 30.864186538730593, 223.1796875 87 M223.1796875 87 C75.96644920262892 87, -71.24678909474216 87, -223.1796875 87 M223.1796875 87 C123.25985881156625 87, 23.340030123132493 87, -223.1796875 87 M-223.1796875 87 C-223.1796875 44.298312434921804, -223.1796875 1.596624869843609, -223.1796875 -87 M-223.1796875 87 C-223.1796875 46.65163020359104, -223.1796875 6.30326040718208, -223.1796875 -87" stroke="#999" stroke-width="1.3" fill="none" stroke-dasharray="0 0" style=""/></g><g class="annotation-group text" transform="translate(0, -63)"/><g class="label-group text" transform="translate(-65.75, -63)"><g class="label" style="font-weight: bolder" transform="translate(0,-12)"><foreignObject width="131.5" height="24"><div xmlns="http://www.w3.org/1999/xhtml" style="display: table-cell; white-space: nowrap; line-height: 1.5; max-width: 171px; text-align: center;"><span class="nodeLabel markdown-node-label" style=""><p>DiscoveryMemory</p></span></div></foreignObject></g></g><g class="members-group text" transform="translate(-211.1796875, -15)"/><g class="methods-group text" transform="translate(-211.1796875, 15)"><g class="label" style="" transform="translate(0,-12)"><foreignObject width="221.46875" height="24"><div xmlns="http://www.w3.org/1999/xhtml" style="display: table-cell; white-space: nowrap; line-height: 1.5; max-width: 254px; text-align: center;"><span class="nodeLabel markdown-node-label" style=""><p>+recordRun(accountId, output)</p></span></div></foreignObject></g><g class="label" style="" transform="translate(0,12)"><foreignObject width="356.609375" height="24"><div xmlns="http://www.w3.org/1999/xhtml" style="display: table-cell; white-space: nowrap; line-height: 1.5; max-width: 381px; text-align: center;"><span class="nodeLabel markdown-node-label" style=""><p>+rememberDiscoveredResourceIds(accountId, ids)</p></span></div></foreignObject></g><g class="label" style="" transform="translate(0,36)"><foreignObject width="168.9375" height="24"><div xmlns="http://www.w3.org/1999/xhtml" style="display: table-cell; white-space: nowrap; line-height: 1.5; max-width: 211px; text-align: center;"><span class="nodeLabel markdown-node-label" style=""><p>+getLastRun(accountId)</p></span></div></foreignObject></g></g><g class="divider" style=""><path d="M-223.1796875 -39 C-128.20581620911508 -38.99978722554827, -33.2319449182302 -38.999574451096535, 223.1796875 -38.999 M-223.1796875 -39 C-101.23232667661972 -38.99972679556507, 20.71503414676056 -38.99945359113014, 223.1796875 -38.999" stroke="#999" stroke-width="1.3" fill="none" stroke-dasharray="0 0" style=""/></g><g class="divider" style=""><path d="M-223.1796875 -15 C-98.97399282833274 -14.999721736113033, 25.23170184333452 -14.999443472226066, 223.1796875 -14.999 M-223.1796875 -15 C-115.26265758269038 -14.999758228378385, -7.345627665380761 -14.999516456756767, 223.1796875 -14.999" stroke="#999" stroke-width="1.3" fill="none" stroke-dasharray="0 0" style=""/></g></g><g class="node default" id="my-svg-classId-DiscoveryAgentImpl-3" data-look="classic" transform="translate(378.947265625, 71)"><g class="basic label-container outer-path"><path d="M-138.9140625 -63 L138.9140625 -63 L138.9140625 63 L-138.9140625 63" stroke="none" stroke-width="0" fill="#eee" style=""/><path d="M-138.9140625 -63 C-29.990033742380973 -63, 78.93399501523805 -63, 138.9140625 -63 M-138.9140625 -63 C-44.43961695767442 -63, 50.034828584651166 -63, 138.9140625 -63 M138.9140625 -63 C138.9140625 -24.42734204222304, 138.9140625 14.145315915553923, 138.9140625 63 M138.9140625 -63 C138.9140625 -30.475429776229475, 138.9140625 2.049140447541049, 138.9140625 63 M138.9140625 63 C40.230373795826424 63, -58.45331490834715 63, -138.9140625 63 M138.9140625 63 C32.598532654363225 63, -73.71699719127355 63, -138.9140625 63 M-138.9140625 63 C-138.9140625 32.28968646954644, -138.9140625 1.5793729390928775, -138.9140625 -63 M-138.9140625 63 C-138.9140625 17.03610800056739, -138.9140625 -28.927783998865223, -138.9140625 -63" stroke="#999" stroke-width="1.3" fill="none" stroke-dasharray="0 0" style=""/></g><g class="annotation-group text" transform="translate(0, -39)"/><g class="label-group text" transform="translate(-73.796875, -39)"><g class="label" style="font-weight: bolder" transform="translate(0,-12)"><foreignObject width="147.59375" height="24"><div xmlns="http://www.w3.org/1999/xhtml" style="display: table-cell; white-space: nowrap; line-height: 1.5; max-width: 185px; text-align: center;"><span class="nodeLabel markdown-node-label" style=""><p>DiscoveryAgentImpl</p></span></div></foreignObject></g></g><g class="members-group text" transform="translate(-126.9140625, 9)"/><g class="methods-group text" transform="translate(-126.9140625, 39)"><g class="label" style="" transform="translate(0,-12)"><foreignObject width="180.03125" height="24"><div xmlns="http://www.w3.org/1999/xhtml" style="display: table-cell; white-space: nowrap; line-height: 1.5; max-width: 211px; text-align: center;"><span class="nodeLabel markdown-node-label" style=""><p>+execute(input, context)</p></span></div></foreignObject></g></g><g class="divider" style=""><path d="M-138.9140625 -15 C-69.36660430667173 -14.999749674521997, 0.18085388665653568 -14.999499349043994, 138.9140625 -14.999 M-138.9140625 -15 C-64.35359073284633 -14.99973163094353, 10.206881034307344 -14.99946326188706, 138.9140625 -14.999" stroke="#999" stroke-width="1.3" fill="none" stroke-dasharray="0 0" style=""/></g><g class="divider" style=""><path d="M-138.9140625 9 C-28.7786995490916 9.000396415456322, 81.3566634018168 9.000792830912642, 138.9140625 9.001 M-138.9140625 9 C-82.55982122580056 9.000202838504109, -26.205579951601123 9.000405677008215, 138.9140625 9.001" stroke="#999" stroke-width="1.3" fill="none" stroke-dasharray="0 0" style=""/></g></g><g class="node default" id="my-svg-classId-ToolRegistry-4" data-look="classic" transform="translate(1026.443359375, 495)"><g class="basic label-container outer-path"><path d="M-189.1953125 -75 L189.1953125 -75 L189.1953125 75 L-189.1953125 75" stroke="none" stroke-width="0" fill="#eee" style=""/><path d="M-189.1953125 -75 C-106.09995706731293 -75, -23.004601634625857 -75, 189.1953125 -75 M-189.1953125 -75 C-45.11386029617347 -75, 98.96759190765306 -75, 189.1953125 -75 M189.1953125 -75 C189.1953125 -32.02983496307469, 189.1953125 10.940330073850618, 189.1953125 75 M189.1953125 -75 C189.1953125 -22.100917857947245, 189.1953125 30.79816428410551, 189.1953125 75 M189.1953125 75 C63.90272689840161 75, -61.38985870319678 75, -189.1953125 75 M189.1953125 75 C58.64326629203654 75, -71.90877991592691 75, -189.1953125 75 M-189.1953125 75 C-189.1953125 36.973495822951705, -189.1953125 -1.0530083540965904, -189.1953125 -75 M-189.1953125 75 C-189.1953125 18.480329081368488, -189.1953125 -38.039341837263024, -189.1953125 -75" stroke="#999" stroke-width="1.3" fill="none" stroke-dasharray="0 0" style=""/></g><g class="annotation-group text" transform="translate(0, -51)"/><g class="label-group text" transform="translate(-45.46875, -51)"><g class="label" style="font-weight: bolder" transform="translate(0,-12)"><foreignObject width="90.9375" height="24"><div xmlns="http://www.w3.org/1999/xhtml" style="display: table-cell; white-space: nowrap; line-height: 1.5; max-width: 133px; text-align: center;"><span class="nodeLabel markdown-node-label" style=""><p>ToolRegistry</p></span></div></foreignObject></g></g><g class="members-group text" transform="translate(-177.1953125, -3)"/><g class="methods-group text" transform="translate(-177.1953125, 27)"><g class="label" style="" transform="translate(0,-12)"><foreignObject width="103.6875" height="24"><div xmlns="http://www.w3.org/1999/xhtml" style="display: table-cell; white-space: nowrap; line-height: 1.5; max-width: 147px; text-align: center;"><span class="nodeLabel markdown-node-label" style=""><p>+register(tool)</p></span></div></foreignObject></g><g class="label" style="" transform="translate(0,12)"><foreignObject width="308.921875" height="24"><div xmlns="http://www.w3.org/1999/xhtml" style="display: table-cell; white-space: nowrap; line-height: 1.5; max-width: 326px; text-align: center;"><span class="nodeLabel markdown-node-label" style=""><p>+execute(name, input, context) : unknown</p></span></div></foreignObject></g></g><g class="divider" style=""><path d="M-189.1953125 -27 C-110.8421044125643 -26.99979293036637, -32.48889632512859 -26.99958586073274, 189.1953125 -26.999 M-189.1953125 -27 C-79.60411405518924 -26.999710375492402, 29.987084389621515 -26.999420750984807, 189.1953125 -26.999" stroke="#999" stroke-width="1.3" fill="none" stroke-dasharray="0 0" style=""/></g><g class="divider" style=""><path d="M-189.1953125 -3 C-52.882922114706105 -2.9996397574850455, 83.42946827058779 -2.9992795149700906, 189.1953125 -2.999 M-189.1953125 -3 C-49.94994461503407 -2.999632006295386, 89.29542326993186 -2.999264012590772, 189.1953125 -2.999" stroke="#999" stroke-width="1.3" fill="none" stroke-dasharray="0 0" style=""/></g></g><g class="node default" id="my-svg-classId-ToolExecutor-5" data-look="classic" transform="translate(1036.443359375, 271)"><g class="basic label-container outer-path"><path d="M-210.78125 -72 L210.78125 -72 L210.78125 72 L-210.78125 72" stroke="none" stroke-width="0" fill="#eee" style=""/><path d="M-210.78125 -72 C-49.78077226895152 -72, 111.21970546209695 -72, 210.78125 -72 M-210.78125 -72 C-121.93328066585798 -72, -33.08531133171596 -72, 210.78125 -72 M210.78125 -72 C210.78125 -27.242289636291922, 210.78125 17.515420727416156, 210.78125 72 M210.78125 -72 C210.78125 -34.645995303077406, 210.78125 2.708009393845188, 210.78125 72 M210.78125 72 C98.7126951917466 72, -13.355859616506791 72, -210.78125 72 M210.78125 72 C95.79154509979026 72, -19.19815980041949 72, -210.78125 72 M-210.78125 72 C-210.78125 14.671837016775854, -210.78125 -42.65632596644829, -210.78125 -72 M-210.78125 72 C-210.78125 33.17595225749192, -210.78125 -5.648095485016157, -210.78125 -72" stroke="#999" stroke-width="1.3" fill="none" stroke-dasharray="0 0" style=""/></g><g class="annotation-group text" transform="translate(0, -48)"/><g class="label-group text" transform="translate(-48.78125, -48)"><g class="label" style="font-weight: bolder" transform="translate(0,-12)"><foreignObject width="97.5625" height="24"><div xmlns="http://www.w3.org/1999/xhtml" style="display: table-cell; white-space: nowrap; line-height: 1.5; max-width: 137px; text-align: center;"><span class="nodeLabel markdown-node-label" style=""><p>ToolExecutor</p></span></div></foreignObject></g></g><g class="members-group text" transform="translate(-198.78125, 0)"><g class="label" style="" transform="translate(0,-12)"><foreignObject width="151.265625" height="24"><div xmlns="http://www.w3.org/1999/xhtml" style="display: table-cell; white-space: nowrap; line-height: 1.5; max-width: 196px; text-align: center;"><span class="nodeLabel markdown-node-label" style=""><p>-ToolRegistry registry</p></span></div></foreignObject></g></g><g class="methods-group text" transform="translate(-198.78125, 48)"><g class="label" style="" transform="translate(0,-12)"><foreignObject width="348.78125" height="24"><div xmlns="http://www.w3.org/1999/xhtml" style="display: table-cell; white-space: nowrap; line-height: 1.5; max-width: 364px; text-align: center;"><span class="nodeLabel markdown-node-label" style=""><p>+run(name, input, context, agentId) : ToolResult</p></span></div></foreignObject></g></g><g class="divider" style=""><path d="M-210.78125 -24 C-57.599488636758906 -23.999636633331086, 95.58227272648219 -23.999273266662176, 210.78125 -23.999 M-210.78125 -24 C-91.42998827403652 -23.999716883589677, 27.921273451926965 -23.999433767179358, 210.78125 -23.999" stroke="#999" stroke-width="1.3" fill="none" stroke-dasharray="0 0" style=""/></g><g class="divider" style=""><path d="M-210.78125 24 C-107.12684267166297 24.000245881470313, -3.472435343325941 24.000491762940623, 210.78125 24.001 M-210.78125 24 C-63.37825148704695 24.00034965870663, 84.0247470259061 24.000699317413257, 210.78125 24.001" stroke="#999" stroke-width="1.3" fill="none" stroke-dasharray="0 0" style=""/></g></g></g></g></g><defs><filter id="my-svg-drop-shadow" height="130%" width="130%"><feDropShadow dx="4" dy="4" stdDeviation="0" flood-opacity="0.06" flood-color="#000000"/></filter></defs><defs><filter id="my-svg-drop-shadow-small" height="150%" width="150%"><feDropShadow dx="2" dy="2" stdDeviation="0" flood-opacity="0.06" flood-color="#000000"/></filter></defs><linearGradient id="my-svg-gradient" gradientUnits="objectBoundingBox" x1="0%" y1="0%" x2="100%" y2="0%"><stop offset="0%" stop-color="hsl(0, 0%, 83.3333333333%)" stop-opacity="1"/><stop offset="100%" stop-color="hsl(0, 0%, 88.9215686275%)" stop-opacity="1"/></linearGradient></svg>