<svg id="my-svg" width="100%" xmlns="http://www.w3.org/2000/svg" xmlns:xlink="http://www.w3.org/1999/xlink" class="classDiagram" style="max-width: 1593.9px; background-color: white;" viewBox="0 0 1593.8984375 716" role="graphics-document document" aria-roledescription="class"><style>#my-svg{font-family:"trebuchet ms",verdana,arial,sans-serif;font-size:16px;fill:#000000;}@keyframes edge-animation-frame{from{stroke-dashoffset:0;}}@keyframes dash{to{stroke-dashoffset:0;}}#my-svg .edge-animation-slow{stroke-dasharray:9,5!important;stroke-dashoffset:900;animation:dash 50s linear infinite;stroke-linecap:round;}#my-svg .edge-animation-fast{stroke-dasharray:9,5!important;stroke-dashoffset:900;animation:dash 20s linear infinite;stroke-linecap:round;}#my-svg .error-icon{fill:#552222;}#my-svg .error-text{fill:#552222;stroke:#552222;}#my-svg .edge-thickness-normal{stroke-width:1px;}#my-svg .edge-thickness-thick{stroke-width:3.5px;}#my-svg .edge-pattern-solid{stroke-dasharray:0;}#my-svg .edge-thickness-invisible{stroke-width:0;fill:none;}#my-svg .edge-pattern-dashed{stroke-dasharray:3;}#my-svg .edge-pattern-dotted{stroke-dasharray:2;}#my-svg .marker{fill:#666;stroke:#666;}#my-svg .marker.cross{stroke:#666;}#my-svg svg{font-family:"trebuchet ms",verdana,arial,sans-serif;font-size:16px;}#my-svg p{margin:0;}#my-svg g.classGroup text{fill:#999;stroke:none;font-family:"trebuchet ms",verdana,arial,sans-serif;font-size:10px;}#my-svg g.classGroup text .title{font-weight:bolder;}#my-svg .cluster-label text{fill:#333;}#my-svg .cluster-label span{color:#333;}#my-svg .cluster-label span p{background-color:transparent;}#my-svg .cluster rect{fill:hsl(0, 0%, 98.9215686275%);stroke:#707070;stroke-width:1px;}#my-svg .cluster text{fill:#333;}#my-svg .cluster span{color:#333;}#my-svg .nodeLabel,#my-svg .edgeLabel{color:#111111;}#my-svg .noteLabel .nodeLabel,#my-svg .noteLabel .edgeLabel{color:#fff;}#my-svg .edgeLabel .label rect{fill:#eee;}#my-svg .label text{fill:#111111;}#my-svg .labelBkg{background:#eee;}#my-svg .edgeLabel .label span{background:#eee;}#my-svg .classTitle{font-weight:bolder;}#my-svg .node rect,#my-svg .node circle,#my-svg .node ellipse,#my-svg .node polygon,#my-svg .node path{fill:#eee;stroke:#999;stroke-width:1;}#my-svg .divider{stroke:#999;stroke-width:1;}#my-svg g.clickable{cursor:pointer;}#my-svg g.classGroup rect{fill:#eee;stroke:#999;}#my-svg g.classGroup line{stroke:#999;stroke-width:1;}#my-svg .classLabel .box{stroke:none;stroke-width:0;fill:#eee;opacity:0.5;}#my-svg .classLabel .label{fill:#999;font-size:10px;}#my-svg .relation{stroke:#666;stroke-width:1;fill:none;}#my-svg .dashed-line{stroke-dasharray:3;}#my-svg .dotted-line{stroke-dasharray:1 2;}#my-svg [id$="-compositionStart"],#my-svg .composition{fill:#666!important;stroke:#666!important;stroke-width:1;}#my-svg [id$="-compositionEnd"],#my-svg .composition{fill:#666!important;stroke:#666!important;stroke-width:1;}#my-svg [id$="-dependencyStart"],#my-svg .dependency{fill:#666!important;stroke:#666!important;stroke-width:1;}#my-svg [id$="-dependencyEnd"],#my-svg .dependency{fill:#666!important;stroke:#666!important;stroke-width:1;}#my-svg [id$="-extensionStart"],#my-svg .extension{fill:transparent!important;stroke:#666!important;stroke-width:1;}#my-svg [id$="-extensionEnd"],#my-svg .extension{fill:transparent!important;stroke:#666!important;stroke-width:1;}#my-svg [id$="-aggregationStart"],#my-svg .aggregation{fill:transparent!important;stroke:#666!important;stroke-width:1;}#my-svg [id$="-aggregationEnd"],#my-svg .aggregation{fill:transparent!important;stroke:#666!important;stroke-width:1;}#my-svg [id$="-lollipopStart"],#my-svg .lollipop{fill:#eee!important;stroke:#666!important;stroke-width:1;}#my-svg [id$="-lollipopEnd"],#my-svg .lollipop{fill:#eee!important;stroke:#666!important;stroke-width:1;}#my-svg .edgeTerminals{font-size:11px;line-height:initial;}#my-svg .classTitleText{text-anchor:middle;font-size:18px;fill:#000000;}#my-svg .edgeLabel[data-look="neo"]{background-color:white;text-align:center;}#my-svg .edgeLabel[data-look="neo"] p{background-color:white;}#my-svg .edgeLabel[data-look="neo"] rect{opacity:0.5;background-color:white;fill:white;}#my-svg .label-icon{display:inline-block;height:1em;overflow:visible;vertical-align:-0.125em;}#my-svg .node .label-icon path{fill:currentColor;stroke:revert;stroke-width:revert;}#my-svg .node .neo-node{stroke:#999;}#my-svg [data-look="neo"].node rect,#my-svg [data-look="neo"].cluster rect,#my-svg [data-look="neo"].node polygon{stroke:url(#my-svg-gradient);filter:drop-shadow( 1px 2px 2px rgba(185,185,185,1));}#my-svg [data-look="neo"].swimlane.cluster rect{filter:none;}#my-svg [data-look="neo"].node path{stroke:url(#my-svg-gradient);stroke-width:1px;}#my-svg [data-look="neo"].node .outer-path{filter:drop-shadow( 1px 2px 2px rgba(185,185,185,1));}#my-svg [data-look="neo"].node .neo-line path{stroke:#999;filter:none;}#my-svg [data-look="neo"].node circle{stroke:url(#my-svg-gradient);filter:drop-shadow( 1px 2px 2px rgba(185,185,185,1));}#my-svg [data-look="neo"].node circle .state-start{fill:#000000;}#my-svg [data-look="neo"].icon-shape .icon{fill:url(#my-svg-gradient);filter:drop-shadow( 1px 2px 2px rgba(185,185,185,1));}#my-svg [data-look="neo"].icon-shape .icon-neo path{stroke:url(#my-svg-gradient);filter:drop-shadow( 1px 2px 2px rgba(185,185,185,1));}#my-svg :root{--mermaid-font-family:"trebuchet ms",verdana,arial,sans-serif;}</style><g><defs><marker id="my-svg_class-aggregationStart" class="marker aggregation class" refX="18" refY="7" markerWidth="190" markerHeight="240" orient="auto"><path d="M 18,7 L9,13 L1,7 L9,1 Z"/></marker></defs><defs><marker id="my-svg_class-aggregationEnd" class="marker aggregation class" refX="1" refY="7" markerWidth="20" markerHeight="28" orient="auto"><path d="M 18,7 L9,13 L1,7 L9,1 Z"/></marker></defs><defs><marker id="my-svg_class-aggregationStart-margin" class="marker aggregation class" refX="15" refY="7" markerWidth="190" markerHeight="240" orient="auto" markerUnits="userSpaceOnUse"><path d="M 18,7 L9,13 L1,7 L9,1 Z" style="stroke-width: 2;"/></marker></defs><defs><marker id="my-svg_class-aggregationEnd-margin" class="marker aggregation class" refX="1" refY="7" markerWidth="20" markerHeight="28" orient="auto" markerUnits="userSpaceOnUse"><path d="M 18,7 L9,13 L1,7 L9,1 Z" style="stroke-width: 2;"/></marker></defs><defs><marker id="my-svg_class-extensionStart" class="marker extension class" refX="18" refY="7" markerWidth="20" markerHeight="28" orient="auto" markerUnits="userSpaceOnUse"><path d="M 1,7 L18,13 V 1 Z"/></marker></defs><defs><marker id="my-svg_class-extensionEnd" class="marker extension class" refX="1" refY="7" markerWidth="20" markerHeight="28" orient="auto"><path d="M 1,1 V 13 L18,7 Z"/></marker></defs><marker id="my-svg_class-extensionStart-margin" class="marker extension class" refX="18" refY="7" markerWidth="20" markerHeight="28" orient="auto" markerUnits="userSpaceOnUse" viewBox="0 0 20 14"><polygon points="10,7 18,13 18,1" style="stroke-width: 2; stroke-dasharray: 0;"/></marker><defs><marker id="my-svg_class-extensionEnd-margin" class="marker extension class" refX="9" refY="7" markerWidth="20" markerHeight="28" orient="auto" markerUnits="userSpaceOnUse" viewBox="0 0 20 14"><polygon points="10,1 10,13 18,7" style="stroke-width: 2; stroke-dasharray: 0;"/></marker></defs><defs><marker id="my-svg_class-compositionStart" class="marker composition class" refX="18" refY="7" markerWidth="190" markerHeight="240" orient="auto"><path d="M 18,7 L9,13 L1,7 L9,1 Z"/></marker></defs><defs><marker id="my-svg_class-compositionEnd" class="marker composition class" refX="1" refY="7" markerWidth="20" markerHeight="28" orient="auto"><path d="M 18,7 L9,13 L1,7 L9,1 Z"/></marker></defs><defs><marker id="my-svg_class-compositionStart-margin" class="marker composition class" refX="15" refY="7" markerWidth="190" markerHeight="240" orient="auto" markerUnits="userSpaceOnUse"><path viewBox="0 0 15 15" d="M 18,7 L9,13 L1,7 L9,1 Z" style="stroke-width: 0;"/></marker></defs><defs><marker id="my-svg_class-compositionEnd-margin" class="marker composition class" refX="3.5" refY="7" markerWidth="20" markerHeight="28" orient="auto" markerUnits="userSpaceOnUse"><path d="M 18,7 L9,13 L1,7 L9,1 Z" style="stroke-width: 0;"/></marker></defs><defs><marker id="my-svg_class-dependencyStart" class="marker dependency class" refX="6" refY="7" markerWidth="190" markerHeight="240" orient="auto"><path d="M 5,7 L9,13 L1,7 L9,1 Z"/></marker></defs><defs><marker id="my-svg_class-dependencyEnd" class="marker dependency class" refX="13" refY="7" markerWidth="20" markerHeight="28" orient="auto"><path d="M 18,7 L9,13 L14,7 L9,1 Z"/></marker></defs><defs><marker id="my-svg_class-dependencyStart-margin" class="marker dependency class" refX="4" refY="7" markerWidth="190" markerHeight="240" orient="auto" markerUnits="userSpaceOnUse"><path d="M 5,7 L9,13 L1,7 L9,1 Z" style="stroke-width: 0;"/></marker></defs><defs><marker id="my-svg_class-dependencyEnd-margin" class="marker dependency class" refX="16" refY="7" markerWidth="20" markerHeight="28" orient="auto" markerUnits="userSpaceOnUse"><path d="M 18,7 L9,13 L14,7 L9,1 Z" style="stroke-width: 0;"/></marker></defs><defs><marker id="my-svg_class-lollipopStart" class="marker lollipop class" refX="13" refY="7" markerWidth="190" markerHeight="240" orient="auto"><circle fill="transparent" cx="7" cy="7" r="6"/></marker></defs><defs><marker id="my-svg_class-lollipopEnd" class="marker lollipop class" refX="1" refY="7" markerWidth="190" markerHeight="240" orient="auto"><circle fill="transparent" cx="7" cy="7" r="6"/></marker></defs><defs><marker id="my-svg_class-lollipopStart-margin" class="marker lollipop class" refX="13" refY="7" markerWidth="190" markerHeight="240" orient="auto" markerUnits="userSpaceOnUse"><circle fill="transparent" cx="7" cy="7" r="6" stroke-width="2"/></marker></defs><defs><marker id="my-svg_class-lollipopEnd-margin" class="marker lollipop class" refX="1" refY="7" markerWidth="190" markerHeight="240" orient="auto" markerUnits="userSpaceOnUse"><circle fill="transparent" cx="7" cy="7" r="6" stroke-width="2"/></marker></defs><g class="root"><g class="clusters"/><g class="edgePaths"><path d="M552.57,180.567L495.292,195.972C438.013,211.378,323.456,242.189,266.177,262.261C208.898,282.333,208.898,291.667,208.898,296.333L208.898,301" id="my-svg-id_OrchestratorService_Planner_1" class="edge-thickness-normal edge-pattern-solid relation" style=";;;" data-edge="true" data-et="edge" data-id="id_OrchestratorService_Planner_1" data-points="W3sieCI6NTUyLjU3MDMxMjUsInkiOjE4MC41NjY2MjM2NzU4NTg5OH0seyJ4IjoyMDguODk4NDM3NSwieSI6MjczfSx7IngiOjIwOC44OTg0Mzc1LCJ5IjozMDd9XQ==" data-look="classic" marker-end="url(#my-svg_class-dependencyEnd)"/><path d="M943.461,243.628L951.735,248.524C960.01,253.419,976.559,263.209,984.833,271.271C993.107,279.333,993.107,285.667,993.107,288.833L993.107,292" id="my-svg-id_OrchestratorService_Executor_2" class="edge-thickness-normal edge-pattern-solid relation" style=";;;" data-edge="true" data-et="edge" data-id="id_OrchestratorService_Executor_2" data-points="W3sieCI6OTQzLjQ2MDkzNzUsInkiOjI0My42MjgzOTE3ODU2MDMzfSx7IngiOjk5My4xMDc0MjE4NzUsInkiOjI3M30seyJ4Ijo5OTMuMTA3NDIxODc1LCJ5IjoyOTh9XQ==" data-look="classic" marker-end="url(#my-svg_class-dependencyEnd)"/><path d="M798.197,454.256L781.678,460.38C765.159,466.504,732.12,478.752,715.601,489.543C699.082,500.333,699.082,509.667,699.082,514.333L699.082,519" id="my-svg-id_Executor_WorkflowEngine_3" class="edge-thickness-normal edge-pattern-solid relation" style=";;;" data-edge="true" data-et="edge" data-id="id_Executor_WorkflowEngine_3" data-points="W3sieCI6Nzk4LjE5NzI2NTYyNSwieSI6NDU0LjI1NjM2ODY5Njg5OTh9LHsieCI6Njk5LjA4MjAzMTI1LCJ5Ijo0OTF9LHsieCI6Njk5LjA4MjAzMTI1LCJ5Ijo1MjV9XQ==" data-look="classic" marker-end="url(#my-svg_class-dependencyEnd)"/><path d="M1188.018,454.256L1204.537,460.38C1221.056,466.504,1254.094,478.752,1270.614,488.543C1287.133,498.333,1287.133,505.667,1287.133,509.333L1287.133,513" id="my-svg-id_Executor_StateManager_4" class="edge-thickness-normal edge-pattern-solid relation" style=";;;" data-edge="true" data-et="edge" data-id="id_Executor_StateManager_4" data-points="W3sieCI6MTE4OC4wMTc1NzgxMjUsInkiOjQ1NC4yNTYzNjg2OTY4OTk4fSx7IngiOjEyODcuMTMyODEyNSwieSI6NDkxfSx7IngiOjEyODcuMTMyODEyNSwieSI6NTE5fV0=" data-look="classic" marker-end="url(#my-svg_class-dependencyEnd)"/><path d="M208.898,457L208.898,462.667C208.898,468.333,208.898,479.667,208.898,488.5C208.898,497.333,208.898,503.667,208.898,506.833L208.898,510" id="my-svg-id_Planner_WorkflowRegistry_5" class="edge-thickness-normal edge-pattern-solid relation" style=";;;" data-edge="true" data-et="edge" data-id="id_Planner_WorkflowRegistry_5" data-points="W3sieCI6MjA4Ljg5ODQzNzUsInkiOjQ1N30seyJ4IjoyMDguODk4NDM3NSwieSI6NDkxfSx7IngiOjIwOC44OTg0Mzc1LCJ5Ijo1MTZ9XQ==" data-look="classic" marker-end="url(#my-svg_class-dependencyEnd)"/></g><g class="edgeLabels"><g class="edgeLabel"><g class="label" data-id="id_OrchestratorService_Planner_1" transform="translate(0, 0)"><foreignObject width="0" height="0"><div xmlns="http://www.w3.org/1999/xhtml" class="labelBkg" style="display: table-cell; white-space: nowrap; line-height: 1.5; max-width: 200px; text-align: center;"><span class="edgeLabel"></span></div></foreignObject></g></g><g class="edgeLabel"><g class="label" data-id="id_OrchestratorService_Executor_2" transform="translate(0, 0)"><foreignObject width="0" height="0"><div xmlns="http://www.w3.org/1999/xhtml" class="labelBkg" style="display: table-cell; white-space: nowrap; line-height: 1.5; max-width: 200px; text-align: center;"><span class="edgeLabel"></span></div></foreignObject></g></g><g class="edgeLabel"><g class="label" data-id="id_Executor_WorkflowEngine_3" transform="translate(0, 0)"><foreignObject width="0" height="0"><div xmlns="http://www.w3.org/1999/xhtml" class="labelBkg" style="display: table-cell; white-space: nowrap; line-height: 1.5; max-width: 200px; text-align: center;"><span class="edgeLabel"></span></div></foreignObject></g></g><g class="edgeLabel"><g class="label" data-id="id_Executor_StateManager_4" transform="translate(0, 0)"><foreignObject width="0" height="0"><div xmlns="http://www.w3.org/1999/xhtml" class="labelBkg" style="display: table-cell; white-space: nowrap; line-height: 1.5; max-width: 200px; text-align: center;"><span class="edgeLabel"></span></div></foreignObject></g></g><g class="edgeLabel"><g class="label" data-id="id_Planner_WorkflowRegistry_5" transform="translate(0, 0)"><foreignObject width="0" height="0"><div xmlns="http://www.w3.org/1999/xhtml" class="labelBkg" style="display: table-cell; white-space: nowrap; line-height: 1.5; max-width: 200px; text-align: center;"><span class="edgeLabel"></span></div></foreignObject></g></g></g><g class="nodes"><g class="node default" id="my-svg-classId-Planner-0" data-look="classic" transform="translate(208.8984375, 382)"><g class="basic label-container outer-path"><path d="M-160.359375 -75 L160.359375 -75 L160.359375 75 L-160.359375 75" stroke="none" stroke-width="0" fill="#eee" style=""/><path d="M-160.359375 -75 C-65.07987148418053 -75, 30.19963203163894 -75, 160.359375 -75 M-160.359375 -75 C-81.32324568818859 -75, -2.2871163763771847 -75, 160.359375 -75 M160.359375 -75 C160.359375 -20.81970207062446, 160.359375 33.36059585875108, 160.359375 75 M160.359375 -75 C160.359375 -26.22095260396211, 160.359375 22.558094792075778, 160.359375 75 M160.359375 75 C70.99319107790687 75, -18.372992844186257 75, -160.359375 75 M160.359375 75 C35.52312881422678 75, -89.31311737154644 75, -160.359375 75 M-160.359375 75 C-160.359375 17.48721146851898, -160.359375 -40.02557706296204, -160.359375 -75 M-160.359375 75 C-160.359375 29.515653767912568, -160.359375 -15.968692464174865, -160.359375 -75" stroke="#999" stroke-width="1.3" fill="none" stroke-dasharray="0 0" style=""/></g><g class="annotation-group text" transform="translate(0, -51)"/><g class="label-group text" transform="translate(-28.78125, -51)"><g class="label" style="font-weight: bolder" transform="translate(0,-12)"><foreignObject width="57.5625" height="24"><div xmlns="http://www.w3.org/1999/xhtml" style="display: table-cell; white-space: nowrap; line-height: 1.5; max-width: 99px; text-align: center;"><span class="nodeLabel markdown-node-label" style=""><p>Planner</p></span></div></foreignObject></g></g><g class="members-group text" transform="translate(-148.359375, -3)"/><g class="methods-group text" transform="translate(-148.359375, 27)"><g class="label" style="" transform="translate(0,-12)"><foreignObject width="267.9375" height="24"><div xmlns="http://www.w3.org/1999/xhtml" style="display: table-cell; white-space: nowrap; line-height: 1.5; max-width: 293px; text-align: center;"><span class="nodeLabel markdown-node-label" style=""><p>+createPlan(request) : ExecutionPlan</p></span></div></foreignObject></g><g class="label" style="" transform="translate(0,12)"><foreignObject width="248.53125" height="24"><div xmlns="http://www.w3.org/1999/xhtml" style="display: table-cell; white-space: nowrap; line-height: 1.5; max-width: 280px; text-align: center;"><span class="nodeLabel markdown-node-label" style=""><p>-resolveWorkflowId(intent) : string</p></span></div></foreignObject></g></g><g class="divider" style=""><path d="M-160.359375 -27 C-57.8357485466199 -26.999680331672366, 44.68787790676021 -26.99936066334473, 160.359375 -26.999 M-160.359375 -27 C-45.36045342030597 -26.99964143374349, 69.63846815938805 -26.999282867486983, 160.359375 -26.999" stroke="#999" stroke-width="1.3" fill="none" stroke-dasharray="0 0" style=""/></g><g class="divider" style=""><path d="M-160.359375 -3 C-51.46583594072759 -2.9996604703059635, 57.42770311854483 -2.999320940611927, 160.359375 -2.999 M-160.359375 -3 C-91.85870527849278 -2.9997864151387423, -23.358035556985556 -2.9995728302774847, 160.359375 -2.999" stroke="#999" stroke-width="1.3" fill="none" stroke-dasharray="0 0" style=""/></g></g><g class="node default" id="my-svg-classId-WorkflowRegistry-1" data-look="classic" transform="translate(208.8984375, 612)"><g class="basic label-container outer-path"><path d="M-200.8984375 -96 L200.8984375 -96 L200.8984375 96 L-200.8984375 96" stroke="none" stroke-width="0" fill="#eee" style=""/><path d="M-200.8984375 -96 C-110.6158622032412 -96, -20.333286906482414 -96, 200.8984375 -96 M-200.8984375 -96 C-50.453756268634464 -96, 99.99092496273107 -96, 200.8984375 -96 M200.8984375 -96 C200.8984375 -41.22199549644148, 200.8984375 13.55600900711704, 200.8984375 96 M200.8984375 -96 C200.8984375 -40.72053288036615, 200.8984375 14.5589342392677, 200.8984375 96 M200.8984375 96 C86.03860112144291 96, -28.821235257114182 96, -200.8984375 96 M200.8984375 96 C100.64419157703098 96, 0.389945654061961 96, -200.8984375 96 M-200.8984375 96 C-200.8984375 20.666912065342785, -200.8984375 -54.66617586931443, -200.8984375 -96 M-200.8984375 96 C-200.8984375 48.717252810629596, -200.8984375 1.4345056212591913, -200.8984375 -96" stroke="#999" stroke-width="1.3" fill="none" stroke-dasharray="0 0" style=""/></g><g class="annotation-group text" transform="translate(0, -72)"/><g class="label-group text" transform="translate(-65.5625, -72)"><g class="label" style="font-weight: bolder" transform="translate(0,-12)"><foreignObject width="131.125" height="24"><div xmlns="http://www.w3.org/1999/xhtml" style="display: table-cell; white-space: nowrap; line-height: 1.5; max-width: 169px; text-align: center;"><span class="nodeLabel markdown-node-label" style=""><p>WorkflowRegistry</p></span></div></foreignObject></g></g><g class="members-group text" transform="translate(-188.8984375, -24)"><g class="label" style="" transform="translate(0,-12)"><foreignObject width="312.234375" height="24"><div xmlns="http://www.w3.org/1999/xhtml" style="display: table-cell; white-space: nowrap; line-height: 1.5; max-width: 387px; text-align: center;"><span class="nodeLabel markdown-node-label" style=""><p>-Map&lt;string,WorkflowDefinition&gt; workflows</p></span></div></foreignObject></g></g><g class="methods-group text" transform="translate(-188.8984375, 24)"><g class="label" style="" transform="translate(0,-12)"><foreignObject width="99" height="24"><div xmlns="http://www.w3.org/1999/xhtml" style="display: table-cell; white-space: nowrap; line-height: 1.5; max-width: 143px; text-align: center;"><span class="nodeLabel markdown-node-label" style=""><p>+register(def)</p></span></div></foreignObject></g><g class="label" style="" transform="translate(0,12)"><foreignObject width="209.6875" height="24"><div xmlns="http://www.w3.org/1999/xhtml" style="display: table-cell; white-space: nowrap; line-height: 1.5; max-width: 249px; text-align: center;"><span class="nodeLabel markdown-node-label" style=""><p>+get(id) : WorkflowDefinition</p></span></div></foreignObject></g><g class="label" style="" transform="translate(0,36)"><foreignObject width="206.96875" height="24"><div xmlns="http://www.w3.org/1999/xhtml" style="display: table-cell; white-space: nowrap; line-height: 1.5; max-width: 247px; text-align: center;"><span class="nodeLabel markdown-node-label" style=""><p>+list() : WorkflowDefinition[]</p></span></div></foreignObject></g></g><g class="divider" style=""><path d="M-200.8984375 -48 C-57.9585664190563 -47.99964424842508, 84.9813046618874 -47.999288496850156, 200.8984375 -47.999 M-200.8984375 -48 C-48.00893540434217 -47.999619485586855, 104.88056669131566 -47.9992389711737, 200.8984375 -47.999" stroke="#999" stroke-width="1.3" fill="none" stroke-dasharray="0 0" style=""/></g><g class="divider" style=""><path d="M-200.8984375 0 C-69.45065197006454 0.00032714984537880103, 61.99713355987092 0.0006542996907576021, 200.8984375 0.001 M-200.8984375 0 C-114.31386627393383 0.00021549339134622732, -27.72929504786765 0.00043098678269245464, 200.8984375 0.001" stroke="#999" stroke-width="1.3" fill="none" stroke-dasharray="0 0" style=""/></g></g><g class="node default" id="my-svg-classId-WorkflowEngine-2" data-look="classic" transform="translate(699.08203125, 612)"><g class="basic label-container outer-path"><path d="M-239.28515625 -87 L239.28515625 -87 L239.28515625 87 L-239.28515625 87" stroke="none" stroke-width="0" fill="#eee" style=""/><path d="M-239.28515625 -87 C-82.79741747887806 -87, 73.69032129224388 -87, 239.28515625 -87 M-239.28515625 -87 C-95.25565809841723 -87, 48.77384005316554 -87, 239.28515625 -87 M239.28515625 -87 C239.28515625 -24.26287998657618, 239.28515625 38.47424002684764, 239.28515625 87 M239.28515625 -87 C239.28515625 -19.43270120127049, 239.28515625 48.13459759745902, 239.28515625 87 M239.28515625 87 C65.15710353092092 87, -108.97094918815816 87, -239.28515625 87 M239.28515625 87 C62.47460142165198 87, -114.33595340669604 87, -239.28515625 87 M-239.28515625 87 C-239.28515625 21.350853211001223, -239.28515625 -44.298293577997555, -239.28515625 -87 M-239.28515625 87 C-239.28515625 48.88841222334636, -239.28515625 10.776824446692714, -239.28515625 -87" stroke="#999" stroke-width="1.3" fill="none" stroke-dasharray="0 0" style=""/></g><g class="annotation-group text" transform="translate(0, -63)"/><g class="label-group text" transform="translate(-60.3671875, -63)"><g class="label" style="font-weight: bolder" transform="translate(0,-12)"><foreignObject width="120.734375" height="24"><div xmlns="http://www.w3.org/1999/xhtml" style="display: table-cell; white-space: nowrap; line-height: 1.5; max-width: 160px; text-align: center;"><span class="nodeLabel markdown-node-label" style=""><p>WorkflowEngine</p></span></div></foreignObject></g></g><g class="members-group text" transform="translate(-227.28515625, -15)"/><g class="methods-group text" transform="translate(-227.28515625, 15)"><g class="label" style="" transform="translate(0,-12)"><foreignObject width="394.203125" height="24"><div xmlns="http://www.w3.org/1999/xhtml" style="display: table-cell; white-space: nowrap; line-height: 1.5; max-width: 412px; text-align: center;"><span class="nodeLabel markdown-node-label" style=""><p>+run(definition, context, options) : WorkflowRunResult</p></span></div></foreignObject></g><g class="label" style="" transform="translate(0,12)"><foreignObject width="210.5625" height="24"><div xmlns="http://www.w3.org/1999/xhtml" style="display: table-cell; white-space: nowrap; line-height: 1.5; max-width: 243px; text-align: center;"><span class="nodeLabel markdown-node-label" style=""><p>-buildWaves(steps) : steps[][]</p></span></div></foreignObject></g><g class="label" style="" transform="translate(0,36)"><foreignObject width="298.6875" height="24"><div xmlns="http://www.w3.org/1999/xhtml" style="display: table-cell; white-space: nowrap; line-height: 1.5; max-width: 323px; text-align: center;"><span class="nodeLabel markdown-node-label" style=""><p>-runStep(step, context) : AgentTaskResult</p></span></div></foreignObject></g></g><g class="divider" style=""><path d="M-239.28515625 -39 C-62.791261267588766 -38.99963120592654, 113.70263371482247 -38.99926241185309, 239.28515625 -38.999 M-239.28515625 -39 C-130.82210239719825 -38.99977336025445, -22.3590485443965 -38.9995467205089, 239.28515625 -38.999" stroke="#999" stroke-width="1.3" fill="none" stroke-dasharray="0 0" style=""/></g><g class="divider" style=""><path d="M-239.28515625 -15 C-87.31594633912007 -14.99968245165665, 64.65326357175985 -14.9993649033133, 239.28515625 -14.999 M-239.28515625 -15 C-127.65370410345042 -14.999766739705262, -16.022251956900845 -14.999533479410525, 239.28515625 -14.999" stroke="#999" stroke-width="1.3" fill="none" stroke-dasharray="0 0" style=""/></g></g><g class="node default" id="my-svg-classId-Executor-3" data-look="classic" transform="translate(993.107421875, 382)"><g class="basic label-container outer-path"><path d="M-194.91015625 -84 L194.91015625 -84 L194.91015625 84 L-194.91015625 84" stroke="none" stroke-width="0" fill="#eee" style=""/><path d="M-194.91015625 -84 C-99.14698120340857 -84, -3.383806156817144 -84, 194.91015625 -84 M-194.91015625 -84 C-51.55936788328518 -84, 91.79142048342965 -84, 194.91015625 -84 M194.91015625 -84 C194.91015625 -42.23852807174648, 194.91015625 -0.477056143492959, 194.91015625 84 M194.91015625 -84 C194.91015625 -17.71401147926987, 194.91015625 48.57197704146026, 194.91015625 84 M194.91015625 84 C58.45590854435042 84, -77.99833916129916 84, -194.91015625 84 M194.91015625 84 C113.44953237482139 84, 31.988908499642775 84, -194.91015625 84 M-194.91015625 84 C-194.91015625 17.106855695000945, -194.91015625 -49.78628860999811, -194.91015625 -84 M-194.91015625 84 C-194.91015625 18.04936668994617, -194.91015625 -47.90126662010766, -194.91015625 -84" stroke="#999" stroke-width="1.3" fill="none" stroke-dasharray="0 0" style=""/></g><g class="annotation-group text" transform="translate(0, -60)"/><g class="label-group text" transform="translate(-33.5078125, -60)"><g class="label" style="font-weight: bolder" transform="translate(0,-12)"><foreignObject width="67.015625" height="24"><div xmlns="http://www.w3.org/1999/xhtml" style="display: table-cell; white-space: nowrap; line-height: 1.5; max-width: 108px; text-align: center;"><span class="nodeLabel markdown-node-label" style=""><p>Executor</p></span></div></foreignObject></g></g><g class="members-group text" transform="translate(-182.91015625, -12)"><g class="label" style="" transform="translate(0,-12)"><foreignObject width="204.28125" height="24"><div xmlns="http://www.w3.org/1999/xhtml" style="display: table-cell; white-space: nowrap; line-height: 1.5; max-width: 239px; text-align: center;"><span class="nodeLabel markdown-node-label" style=""><p>-StateManager stateManager</p></span></div></foreignObject></g><g class="label" style="" transform="translate(0,12)"><foreignObject width="180.28125" height="24"><div xmlns="http://www.w3.org/1999/xhtml" style="display: table-cell; white-space: nowrap; line-height: 1.5; max-width: 221px; text-align: center;"><span class="nodeLabel markdown-node-label" style=""><p>-ExecutionHistory history</p></span></div></foreignObject></g></g><g class="methods-group text" transform="translate(-182.91015625, 60)"><g class="label" style="" transform="translate(0,-12)"><foreignObject width="332.3125" height="24"><div xmlns="http://www.w3.org/1999/xhtml" style="display: table-cell; white-space: nowrap; line-height: 1.5; max-width: 351px; text-align: center;"><span class="nodeLabel markdown-node-label" style=""><p>+run(plan, context, options) : ExecutionResult</p></span></div></foreignObject></g></g><g class="divider" style=""><path d="M-194.91015625 -36 C-73.39116495638717 -35.999688269216875, 48.127826337225656 -35.99937653843375, 194.91015625 -35.999 M-194.91015625 -36 C-86.78564190326387 -35.999722629860784, 21.33887244347227 -35.999445259721575, 194.91015625 -35.999" stroke="#999" stroke-width="1.3" fill="none" stroke-dasharray="0 0" style=""/></g><g class="divider" style=""><path d="M-194.91015625 36 C-100.25751571147917 36.00024281095033, -5.604875172958344 36.00048562190067, 194.91015625 36.001 M-194.91015625 36 C-86.30083934656173 36.00027861379569, 22.30847755687654 36.00055722759138, 194.91015625 36.001" stroke="#999" stroke-width="1.3" fill="none" stroke-dasharray="0 0" style=""/></g></g><g class="node default" id="my-svg-classId-StateManager-4" data-look="classic" transform="translate(1287.1328125, 612)"><g class="basic label-container outer-path"><path d="M-298.765625 -93 L298.765625 -93 L298.765625 93 L-298.765625 93" stroke="none" stroke-width="0" fill="#eee" style=""/><path d="M-298.765625 -93 C-99.00197755824482 -93, 100.76166988351036 -93, 298.765625 -93 M-298.765625 -93 C-72.69495119024401 -93, 153.37572261951198 -93, 298.765625 -93 M298.765625 -93 C298.765625 -25.42933227392878, 298.765625 42.14133545214244, 298.765625 93 M298.765625 -93 C298.765625 -19.305339511308063, 298.765625 54.389320977383875, 298.765625 93 M298.765625 93 C153.17036781925117 93, 7.575110638502338 93, -298.765625 93 M298.765625 93 C174.09054340921278 93, 49.41546181842557 93, -298.765625 93 M-298.765625 93 C-298.765625 52.28533115016191, -298.765625 11.570662300323818, -298.765625 -93 M-298.765625 93 C-298.765625 45.354695949753186, -298.765625 -2.2906081004936283, -298.765625 -93" stroke="#999" stroke-width="1.3" fill="none" stroke-dasharray="0 0" style=""/></g><g class="annotation-group text" transform="translate(0, -69)"/><g class="label-group text" transform="translate(-50.53125, -69)"><g class="label" style="font-weight: bolder" transform="translate(0,-12)"><foreignObject width="101.0625" height="24"><div xmlns="http://www.w3.org/1999/xhtml" style="display: table-cell; white-space: nowrap; line-height: 1.5; max-width: 139px; text-align: center;"><span class="nodeLabel markdown-node-label" style=""><p>StateManager</p></span></div></foreignObject></g></g><g class="members-group text" transform="translate(-286.765625, -21)"/><g class="methods-group text" transform="translate(-286.765625, 9)"><g class="label" style="" transform="translate(0,-12)"><foreignObject width="103.796875" height="24"><div xmlns="http://www.w3.org/1999/xhtml" style="display: table-cell; white-space: nowrap; line-height: 1.5; max-width: 145px; text-align: center;"><span class="nodeLabel markdown-node-label" style=""><p>+create(input)</p></span></div></foreignObject></g><g class="label" style="" transform="translate(0,12)"><foreignObject width="214.71875" height="24"><div xmlns="http://www.w3.org/1999/xhtml" style="display: table-cell; white-space: nowrap; line-height: 1.5; max-width: 247px; text-align: center;"><span class="nodeLabel markdown-node-label" style=""><p>+touchCurrentStep(id, stepId)</p></span></div></foreignObject></g><g class="label" style="" transform="translate(0,24)"><foreignObject width="523" height="48"><div xmlns="http://www.w3.org/1999/xhtml" style="display: table; white-space: break-spaces; line-height: 1.5; max-width: 523px; text-align: center; width: 523px;"><span class="nodeLabel markdown-node-label" style=""><p>+finalize(id, steps, status, finishedAt, context) : WorkflowExecutionState</p></span></div></foreignObject></g></g><g class="divider" style=""><path d="M-298.765625 -45 C-63.209213069177224 -44.999605783945306, 172.34719886164555 -44.99921156789062, 298.765625 -44.999 M-298.765625 -45 C-130.8579580074257 -44.99971899768089, 37.049708985148584 -44.999437995361774, 298.765625 -44.999" stroke="#999" stroke-width="1.3" fill="none" stroke-dasharray="0 0" style=""/></g><g class="divider" style=""><path d="M-298.765625 -21 C-171.25185227571137 -20.999786598989218, -43.73807955142274 -20.999573197978435, 298.765625 -20.999 M-298.765625 -21 C-146.0056902881199 -20.99974434820821, 6.754244423760213 -20.999488696416424, 298.765625 -20.999" stroke="#999" stroke-width="1.3" fill="none" stroke-dasharray="0 0" style=""/></g></g><g class="node default" id="my-svg-classId-OrchestratorService-5" data-look="classic" transform="translate(748.015625, 128)"><g class="basic label-container outer-path"><path d="M-195.4453125 -120 L195.4453125 -120 L195.4453125 120 L-195.4453125 120" stroke="none" stroke-width="0" fill="#eee" style=""/><path d="M-195.4453125 -120 C-103.54659929193456 -120, -11.64788608386911 -120, 195.4453125 -120 M-195.4453125 -120 C-81.54204128006243 -120, 32.36122993987513 -120, 195.4453125 -120 M195.4453125 -120 C195.4453125 -63.46701347603374, 195.4453125 -6.934026952067484, 195.4453125 120 M195.4453125 -120 C195.4453125 -48.48913603768307, 195.4453125 23.021727924633865, 195.4453125 120 M195.4453125 120 C64.08130097590356 120, -67.28271054819288 120, -195.4453125 120 M195.4453125 120 C73.04030691234254 120, -49.36469867531491 120, -195.4453125 120 M-195.4453125 120 C-195.4453125 42.016433312013746, -195.4453125 -35.96713337597251, -195.4453125 -120 M-195.4453125 120 C-195.4453125 33.83083307593182, -195.4453125 -52.33833384813636, -195.4453125 -120" stroke="#999" stroke-width="1.3" fill="none" stroke-dasharray="0 0" style=""/></g><g class="annotation-group text" transform="translate(0, -96)"/><g class="label-group text" transform="translate(-75.296875, -96)"><g class="label" style="font-weight: bolder" transform="translate(0,-12)"><foreignObject width="150.59375" height="24"><div xmlns="http://www.w3.org/1999/xhtml" style="display: table-cell; white-space: nowrap; line-height: 1.5; max-width: 178px; text-align: center;"><span class="nodeLabel markdown-node-label" style=""><p>OrchestratorService</p></span></div></foreignObject></g></g><g class="members-group text" transform="translate(-183.4453125, -48)"><g class="label" style="" transform="translate(0,-12)"><foreignObject width="119.640625" height="24"><div xmlns="http://www.w3.org/1999/xhtml" style="display: table-cell; white-space: nowrap; line-height: 1.5; max-width: 161px; text-align: center;"><span class="nodeLabel markdown-node-label" style=""><p>-Planner planner</p></span></div></foreignObject></g><g class="label" style="" transform="translate(0,12)"><foreignObject width="137.109375" height="24"><div xmlns="http://www.w3.org/1999/xhtml" style="display: table-cell; white-space: nowrap; line-height: 1.5; max-width: 177px; text-align: center;"><span class="nodeLabel markdown-node-label" style=""><p>-Executor executor</p></span></div></foreignObject></g><g class="label" style="" transform="translate(0,36)"><foreignObject width="291.59375" height="24"><div xmlns="http://www.w3.org/1999/xhtml" style="display: table-cell; white-space: nowrap; line-height: 1.5; max-width: 360px; text-align: center;"><span class="nodeLabel markdown-node-label" style=""><p>-Map&lt;string,AbortController&gt; controllers</p></span></div></foreignObject></g></g><g class="methods-group text" transform="translate(-183.4453125, 48)"><g class="label" style="" transform="translate(0,-12)"><foreignObject width="244.046875" height="24"><div xmlns="http://www.w3.org/1999/xhtml" style="display: table-cell; white-space: nowrap; line-height: 1.5; max-width: 274px; text-align: center;"><span class="nodeLabel markdown-node-label" style=""><p>+execute(input) : ExecutionResult</p></span></div></foreignObject></g><g class="label" style="" transform="translate(0,12)"><foreignObject width="150.3125" height="24"><div xmlns="http://www.w3.org/1999/xhtml" style="display: table-cell; white-space: nowrap; line-height: 1.5; max-width: 191px; text-align: center;"><span class="nodeLabel markdown-node-label" style=""><p>+cancel(executionId)</p></span></div></foreignObject></g><g class="label" style="" transform="translate(0,36)"><foreignObject width="170.984375" height="24"><div xmlns="http://www.w3.org/1999/xhtml" style="display: table-cell; white-space: nowrap; line-height: 1.5; max-width: 208px; text-align: center;"><span class="nodeLabel markdown-node-label" style=""><p>+getStatus(executionId)</p></span></div></foreignObject></g></g><g class="divider" style=""><path d="M-195.4453125 -72 C-85.24420840303776 -71.99971807688124, 24.95689569392448 -71.99943615376246, 195.4453125 -71.999 M-195.4453125 -72 C-59.425788917089534 -71.99965202664151, 76.59373466582093 -71.99930405328303, 195.4453125 -71.999" stroke="#999" stroke-width="1.3" fill="none" stroke-dasharray="0 0" style=""/></g><g class="divider" style=""><path d="M-195.4453125 24 C-115.31009227095198 24.00020500675919, -35.17487204190397 24.00041001351838, 195.4453125 24.001 M-195.4453125 24 C-81.90791211565976 24.000290458233387, 31.62948826868049 24.00058091646677, 195.4453125 24.001" stroke="#999" stroke-width="1.3" fill="none" stroke-dasharray="0 0" style=""/></g></g></g></g></g><defs><filter id="my-svg-drop-shadow" height="130%" width="130%"><feDropShadow dx="4" dy="4" stdDeviation="0" flood-opacity="0.06" flood-color="#000000"/></filter></defs><defs><filter id="my-svg-drop-shadow-small" height="150%" width="150%"><feDropShadow dx="2" dy="2" stdDeviation="0" flood-opacity="0.06" flood-color="#000000"/></filter></defs><linearGradient id="my-svg-gradient" gradientUnits="objectBoundingBox" x1="0%" y1="0%" x2="100%" y2="0%"><stop offset="0%" stop-color="hsl(0, 0%, 83.3333333333%)" stop-opacity="1"/><stop offset="100%" stop-color="hsl(0, 0%, 88.9215686275%)" stop-opacity="1"/></linearGradient></svg>